# xmcd
#
# Track frame offsets: 
#        150
#        25289
#        48875
#        66138
#        98809
#        121198
#        140992
#        165909
#        191511
#        214007
#        232521
#
# Disc length: 3420 seconds
#
# Revision: 1
# Processed by: cddbd v1.5.2PL0 Copyright (c) Steve Scherf et al.
# Submitted via: ExactAudioCopy v1.0b3
#
DISCID=8a0d5a0b
DTITLE=David 'Clem' Clempson - In The Public Interest
DYEAR=2013
DGENRE=Rock - Bluesrock
TTITLE0=Think About Me
TTITLE1=In The Public Interest
TTITLE2=Route 69
TTITLE3=Can't We Try Again
TTITLE4=Dancing With The Blues
TTITLE5=Who
TTITLE6=Waiting For The Day
TTITLE7=Leopold's Great Escape
TTITLE8=I Don't Need No Doctor
TTITLE9=7th Blues
TTITLE10=The Way You Waved Goodbye
EXTD=YEAR: 2013
EXTT0=
EXTT1=
EXTT2=
EXTT3=
EXTT4=
EXTT5=
EXTT6=
EXTT7=
EXTT8=
EXTT9=
EXTT10=
PLAYORDER=
